<svg width="41" height="41" viewBox="0 0 41 41" fill="none" xmlns="http://www.w3.org/2000/svg">
<circle cx="20.5" cy="20.5" r="20.5" fill="#FFA604"/>
<path d="M21.875 30.125C21.875 25.5737 25.5737 21.875 30.125 21.875C31.6375 21.875 33.04 22.2875 34.25 22.9888V12.25C34.25 11.5207 33.9603 10.8212 33.4445 10.3055C32.9288 9.78973 32.2293 9.5 31.5 9.5H9.5C7.97375 9.5 6.75 10.7237 6.75 12.25V28.75C6.75 29.4793 7.03973 30.1788 7.55546 30.6945C8.07118 31.2103 8.77065 31.5 9.5 31.5H21.9988C21.93 31.0462 21.875 30.5925 21.875 30.125ZM9.5 15V12.25L20.5 19.125L31.5 12.25V15L20.5 21.875L9.5 15ZM31.5 34.25V31.5H26V28.75H31.5V26L35.625 30.125L31.5 34.25Z" fill="#9F1E98"/>
</svg>
